<?xml version="1.0" encoding="UTF-8" standalone="no"?>
<!-- Created with Inkscape (http://www.inkscape.org/) -->

<svg
   xmlns:dc="http://purl.org/dc/elements/1.1/"
   xmlns:cc="http://creativecommons.org/ns#"
   xmlns:rdf="http://www.w3.org/1999/02/22-rdf-syntax-ns#"
   xmlns:svg="http://www.w3.org/2000/svg"
   xmlns="http://www.w3.org/2000/svg"
   xmlns:sodipodi="http://sodipodi.sourceforge.net/DTD/sodipodi-0.dtd"
   xmlns:inkscape="http://www.inkscape.org/namespaces/inkscape"
   width="512"
   height="512"
   id="svg3098"
   version="1.1"
   inkscape:version="0.48.5 r10040"
   sodipodi:docname="little-snipper-outline.svg"
   inkscape:export-filename="/home/user/CyborgUnplug/DesignAssets/little-snipper-outline-512.png"
   inkscape:export-xdpi="90"
   inkscape:export-ydpi="90">
  <defs
     id="defs3100" />
  <sodipodi:namedview
     id="base"
     pagecolor="#ffffff"
     bordercolor="#666666"
     borderopacity="1.0"
     inkscape:pageopacity="0.0"
     inkscape:pageshadow="2"
     inkscape:zoom="0.68481176"
     inkscape:cx="208.34901"
     inkscape:cy="188.53011"
     inkscape:document-units="px"
     inkscape:current-layer="layer1"
     showgrid="false"
     inkscape:window-width="1697"
     inkscape:window-height="967"
     inkscape:window-x="39"
     inkscape:window-y="72"
     inkscape:window-maximized="0" />
  <metadata
     id="metadata3103">
    <rdf:RDF>
      <cc:Work
         rdf:about="">
        <dc:format>image/svg+xml</dc:format>
        <dc:type
           rdf:resource="http://purl.org/dc/dcmitype/StillImage" />
        <dc:title></dc:title>
      </cc:Work>
    </rdf:RDF>
  </metadata>
  <g
     inkscape:label="Layer 1"
     inkscape:groupmode="layer"
     id="layer1"
     transform="translate(0,-540.36218)">
    <path
       style="fill:#ffffff;stroke:#000000;stroke-width:8;stroke-linecap:butt;stroke-linejoin:miter;stroke-miterlimit:4;stroke-opacity:1;stroke-dasharray:none"
       d="m 159.78656,998.93627 60.41833,36.87893 c 0,0 39.04368,22.1832 65.60018,-4.3733 53.8274,-53.82741 202.26734,-211.01393 202.26734,-211.01393 0,0 13.6667,-10.38668 4.37332,-29.52008 -12.17866,-25.07354 -119.74891,-223.04064 -119.74891,-223.04064 0,0 -7.57564,-14.08073 -29.44236,-16.26739 -21.86673,-2.18668 -69.4761,-6.69268 -69.4761,-6.69268 0,0 -11.89404,-3.93183 -31.70675,10.93336 -16.05459,12.04556 -202.267229,185.86721 -202.267229,185.86721 0,0 -50.293455,36.08011 -14.213365,86.37357 18.040046,25.14674 83.997844,112.46053 111.194584,146.62729 10.76711,13.52653 23.00096,24.22766 23.00096,24.22766 z"
       id="path3285"
       inkscape:connector-curvature="0"
       sodipodi:nodetypes="ccscscscscssc" />
    <path
       style="fill:none;stroke:#000000;stroke-width:8;stroke-linecap:butt;stroke-linejoin:miter;stroke-miterlimit:4;stroke-opacity:1;stroke-dasharray:none"
       d="m 452.00448,858.47908 -37.44893,40.22178 39.63354,17.89366 11.64157,-3.24389 0.66892,-0.22298 0,0.0557 27.04461,-7.5146 -12.22451,-24.12771 z m 14.4951,54.70431 7.82015,30.32448 c 1.17748,7.08154 16.52701,4.336 13.82439,-4.51523 l -8.27163,-29.5081 z m -36.05704,-6.95716 5.18405,24.35991 c 0,0 7.80017,8.30111 13.26696,-2.45271 l -3.56759,-15.21798 z"
       id="path3291"
       inkscape:connector-curvature="0"
       sodipodi:nodetypes="ccccccccccccccccccc" />
    <path
       style="fill:none;stroke:#000000;stroke-width:8;stroke-linecap:butt;stroke-linejoin:miter;stroke-miterlimit:4;stroke-opacity:1;stroke-dasharray:none"
       d="m 372.65897,567.49208 c -25.69339,-11.48004 -40.6083,4.3918 -40.6083,4.3918 0,0 -203.23963,185.62305 -227.97899,207.27001 -24.739387,21.64696 -11.276356,53.13393 -11.276356,53.13393 L 216.89679,1015.3784 c 0,0 14.85446,20.7182 32.34785,28.3716"
       id="path3283"
       inkscape:connector-curvature="0"
       sodipodi:nodetypes="ccsccc" />
    <path
       sodipodi:type="arc"
       style="fill:#d40000;fill-opacity:1;stroke:none"
       id="path3293"
       sodipodi:cx="439.77585"
       sodipodi:cy="218.4736"
       sodipodi:rx="3.3711042"
       sodipodi:ry="3.9840322"
       d="m 443.14695,218.4736 c 0,2.20032 -1.50929,3.98403 -3.3711,3.98403 -1.86181,0 -3.37111,-1.78371 -3.37111,-3.98403 0,-2.20032 1.5093,-3.98403 3.37111,-3.98403 1.86181,0 3.3711,1.78371 3.3711,3.98403 z"
       transform="matrix(1.8786133,1.5763438,-1.5763438,1.8786133,-302.43954,-444.38625)" />
  </g>
</svg>
