<?xml version="1.0" encoding="UTF-8" standalone="no"?>
<!-- Generator: Adobe Illustrator 14.0.0, SVG Export Plug-In . SVG Version: 6.00 Build 43363)  -->

<svg
   xmlns:dc="http://purl.org/dc/elements/1.1/"
   xmlns:cc="http://creativecommons.org/ns#"
   xmlns:rdf="http://www.w3.org/1999/02/22-rdf-syntax-ns#"
   xmlns:svg="http://www.w3.org/2000/svg"
   xmlns="http://www.w3.org/2000/svg"
   xmlns:sodipodi="http://sodipodi.sourceforge.net/DTD/sodipodi-0.dtd"
   xmlns:inkscape="http://www.inkscape.org/namespaces/inkscape"
   version="1.0"
   id="Layer_1"
   x="0px"
   y="0px"
   width="95.856px"
   height="100px"
   viewBox="0 0 95.856 100"
   enable-background="new 0 0 95.856 100"
   xml:space="preserve"
   inkscape:version="0.48.5 r10040"
   sodipodi:docname="bridge.svg"><metadata
     id="metadata17"><rdf:RDF><cc:Work
         rdf:about=""><dc:format>image/svg+xml</dc:format><dc:type
           rdf:resource="http://purl.org/dc/dcmitype/StillImage" /><dc:title /></cc:Work></rdf:RDF></metadata><defs
     id="defs15" /><sodipodi:namedview
     pagecolor="#ffffff"
     bordercolor="#666666"
     borderopacity="1"
     objecttolerance="10"
     gridtolerance="10"
     guidetolerance="10"
     inkscape:pageopacity="0"
     inkscape:pageshadow="2"
     inkscape:window-width="1376"
     inkscape:window-height="1023"
     id="namedview13"
     showgrid="false"
     inkscape:zoom="6.7049212"
     inkscape:cx="48.392056"
     inkscape:cy="50.246865"
     inkscape:window-x="364"
     inkscape:window-y="65"
     inkscape:window-maximized="0"
     inkscape:current-layer="Layer_1" /><path
     d="M 47.875 6.4375 C 30.139 6.4375 13.64 11.85175 0 21.09375 L 5.09375 28.71875 C 17.29575 20.45475 32.024 15.625 47.875 15.625 C 63.75 15.625 78.4605 20.45 90.6875 28.75 L 95.84375 21.1875 C 82.14375 11.8855 65.635 6.4375 47.875 6.4375 z M 47.90625 25.15625 C 33.79525 25.15625 20.6625 29.47475 9.8125 36.84375 L 15.03125 44.375 C 24.40625 38.045 35.72725 34.34375 47.90625 34.34375 C 60.13225 34.34375 71.476 38.06475 80.875 44.46875 L 86.0625 36.84375 C 75.1645 29.47475 62.04125 25.15625 47.90625 25.15625 z M 47.84375 43.875 C 37.40575 43.875 27.70225 47.039 19.65625 52.5 L 24.8125 60.1875 C 31.4075 55.7655 39.31475 53.15625 47.84375 53.15625 C 56.42175 53.15625 64.428 55.8065 71 60.3125 L 76.1875 52.59375 C 68.1165 47.09675 58.35575 43.875 47.84375 43.875 z M 43.0625 63.3125 L 43.0625 78.90625 L 35.03125 78.90625 L 48.28125 96.15625 L 61.5 78.90625 L 53.46875 78.90625 L 53.46875 63.3125 L 43.0625 63.3125 z "
     transform="translate(-1.4038086e-6,0)"
     id="path7" /></svg>