<?xml version="1.0" encoding="UTF-8" standalone="no"?>
<svg
   xmlns:dc="http://purl.org/dc/elements/1.1/"
   xmlns:cc="http://creativecommons.org/ns#"
   xmlns:rdf="http://www.w3.org/1999/02/22-rdf-syntax-ns#"
   xmlns:svg="http://www.w3.org/2000/svg"
   xmlns="http://www.w3.org/2000/svg"
   xmlns:sodipodi="http://sodipodi.sourceforge.net/DTD/sodipodi-0.dtd"
   xmlns:inkscape="http://www.inkscape.org/namespaces/inkscape"
   width="100px"
   height="100px"
   version="1.1"
   xml:space="preserve"
   style="fill-rule:evenodd;clip-rule:evenodd;stroke-linejoin:round;stroke-miterlimit:1.41421;"
   id="svg4527"
   sodipodi:docname="clock-3.svg"
   inkscape:version="0.92.1 r15371"><sodipodi:namedview
     pagecolor="#ffffff"
     bordercolor="#666666"
     borderopacity="1"
     objecttolerance="10"
     gridtolerance="10"
     guidetolerance="10"
     inkscape:pageopacity="0"
     inkscape:pageshadow="2"
     inkscape:window-width="1364"
     inkscape:window-height="720"
     id="namedview4548"
     showgrid="false"
     inkscape:zoom="3.8042345"
     inkscape:cx="50"
     inkscape:cy="30.118162"
     inkscape:window-x="0"
     inkscape:window-y="23"
     inkscape:window-maximized="1"
     inkscape:current-layer="g4525" /><metadata
     id="metadata4533"><rdf:RDF><cc:Work
         rdf:about=""><dc:format>image/svg+xml</dc:format><dc:type
           rdf:resource="http://purl.org/dc/dcmitype/StillImage" /><dc:title /></cc:Work></rdf:RDF></metadata><defs
     id="defs4531" /><g
     id="g4525"><path
       id="clock"
       d="m 45.091402,57.211342 29.207875,-0.05875 V 46.283022 L 55.801125,46.271093 56.017538,18.376174 H 45.147972 m 5.434783,81.618261 c 27.614239,0 50.000005,-22.385761 50.000005,-50 0,-27.614239 -22.385766,-50.00000049 -50.000005,-50.00000049 -27.614239,0 -49.99999967,22.38576149 -49.99999967,50.00000049 0,27.614239 22.38576067,50 49.99999967,50 m 0,-11.956522 c 21.01087,0 38.043478,-17.032608 38.043478,-38.043478 0,-21.01087 -17.032608,-38.043479 -38.043478,-38.043479 -21.01087,0 -38.043478,17.032609 -38.043478,38.043479 0,21.01087 17.032608,38.043478 38.043478,38.043478"
       style="fill:#000000;stroke-width:1.0869565"
       inkscape:connector-curvature="0"
       sodipodi:nodetypes="cccccccsssccsssc" /><path
       style="fill:#000000;fill-opacity:1;stroke:none;stroke-width:0;stroke-miterlimit:1.41420996;stroke-dasharray:none;stroke-opacity:1"
       d="m 63.082756,49.994434 a 12.5,12.5 0 0 1 -12.5,12.5 12.5,12.5 0 0 1 -12.5,-12.5 12.5,12.5 0 0 1 12.5,-12.5 12.5,12.5 0 0 1 12.5,12.5 z"
       id="path5719"
       inkscape:connector-curvature="0" /></g></svg>