<?xml version="1.0" encoding="UTF-8" standalone="no"?>
<svg
   xmlns:dc="http://purl.org/dc/elements/1.1/"
   xmlns:cc="http://creativecommons.org/ns#"
   xmlns:rdf="http://www.w3.org/1999/02/22-rdf-syntax-ns#"
   xmlns:svg="http://www.w3.org/2000/svg"
   xmlns="http://www.w3.org/2000/svg"
   xmlns:sodipodi="http://sodipodi.sourceforge.net/DTD/sodipodi-0.dtd"
   xmlns:inkscape="http://www.inkscape.org/namespaces/inkscape"
   xml:space="preserve"
   style="enable-background:new 0 0 100 100;"
   viewBox="0 0 100 100"
   height="100px"
   width="100px"
   y="0px"
   x="0px"
   id="Layer_1"
   version="1.1"
   sodipodi:docname="collapse.svg"
   inkscape:version="0.92.1 r15371"><sodipodi:namedview
     pagecolor="#ffffff"
     bordercolor="#666666"
     borderopacity="1"
     objecttolerance="10"
     gridtolerance="10"
     guidetolerance="10"
     inkscape:pageopacity="0"
     inkscape:pageshadow="2"
     inkscape:window-width="1364"
     inkscape:window-height="720"
     id="namedview4527"
     showgrid="false"
     inkscape:zoom="5.38"
     inkscape:cx="50"
     inkscape:cy="50"
     inkscape:window-x="0"
     inkscape:window-y="23"
     inkscape:window-maximized="1"
     inkscape:current-layer="Layer_1" /><metadata
     id="metadata4537"><rdf:RDF><cc:Work
         rdf:about=""><dc:format>image/svg+xml</dc:format><dc:type
           rdf:resource="http://purl.org/dc/dcmitype/StillImage" /><dc:title></dc:title></cc:Work></rdf:RDF></metadata><defs
     id="defs4535" /><g
     id="g4530"><path
       id="path4526"
       d="M4.992,85.334c-5.581-0.018-6.352-8.145-2.964-9.708c0.014-0.01,43.396-19.905,43.036-20.063   c3.355-1.558,6.529-1.558,9.606,0c0.098,0.064,42.542,19.947,42.912,20.26c3.688,1.685,3.201,9.516-1.775,9.513   C95.807,85.355,5.022,85.337,4.992,85.334z" /><path
       id="path4528"
       d="M95.008,14.666c5.581,0.017,6.352,8.145,2.963,9.708c-0.013,0.01-43.57,20.132-43.535,20.125   c-3.355,1.557-6.529,1.557-9.606,0C44.731,44.434,2.788,24.49,2.417,24.179c-3.688-1.684-3.2-9.515,1.777-9.513   C4.195,14.644,94.979,14.664,95.008,14.666z" /></g></svg>