<?xml version="1.0" encoding="UTF-8" standalone="no"?>
<!-- Created with Inkscape (http://www.inkscape.org/) -->

<svg
   xmlns:dc="http://purl.org/dc/elements/1.1/"
   xmlns:cc="http://creativecommons.org/ns#"
   xmlns:rdf="http://www.w3.org/1999/02/22-rdf-syntax-ns#"
   xmlns:svg="http://www.w3.org/2000/svg"
   xmlns="http://www.w3.org/2000/svg"
   xmlns:sodipodi="http://sodipodi.sourceforge.net/DTD/sodipodi-0.dtd"
   xmlns:inkscape="http://www.inkscape.org/namespaces/inkscape"
   width="100mm"
   height="100mm"
   viewBox="0 0 100 100"
   version="1.1"
   id="svg8"
   inkscape:version="0.92.1 r15371"
   sodipodi:docname="ethernet-port.svg">
  <defs
     id="defs2" />
  <sodipodi:namedview
     id="base"
     pagecolor="#ffffff"
     bordercolor="#666666"
     borderopacity="1.0"
     inkscape:pageopacity="0.0"
     inkscape:pageshadow="2"
     inkscape:zoom="0.7"
     inkscape:cx="197.97075"
     inkscape:cy="185.39536"
     inkscape:document-units="mm"
     inkscape:current-layer="layer1"
     showgrid="false"
     inkscape:window-width="1364"
     inkscape:window-height="720"
     inkscape:window-x="0"
     inkscape:window-y="23"
     inkscape:window-maximized="1" />
  <metadata
     id="metadata5">
    <rdf:RDF>
      <cc:Work
         rdf:about="">
        <dc:format>image/svg+xml</dc:format>
        <dc:type
           rdf:resource="http://purl.org/dc/dcmitype/StillImage" />
        <dc:title />
      </cc:Work>
    </rdf:RDF>
  </metadata>
  <g
     inkscape:label="Layer 1"
     inkscape:groupmode="layer"
     id="layer1"
     transform="translate(0,-197)">
    <path
       style="fill:#000000;fill-opacity:1;stroke:none;stroke-width:0;stroke-miterlimit:1.41420996;stroke-dasharray:none;stroke-opacity:1"
       d="M 41.425781,0.25585938 C 19.542385,0.25585938 1.9238281,17.872434 1.9238281,39.755859 V 338.70703 c 0,21.88339 17.6185569,39.50195 39.5019529,39.50195 H 340.37695 c 21.8834,0 39.5,-17.61856 39.5,-39.50195 V 39.755859 c 0,-21.883425 -17.6166,-39.49999962 -39.5,-39.49999962 z M 164.7207,77.214844 h 56.125 v 22.601562 h 52.81641 v 25.095704 h 49.46875 V 297.25 H 287.20703 V 261.02539 H 261.78711 V 297.25 H 232.48828 V 261.02539 H 207.06836 V 297.25 H 177.77148 V 261.02539 H 152.35156 V 297.25 H 121.33984 V 261.11719 H 95.919922 V 297.25 h -37.25 V 124.91211 H 108.13672 V 99.816406 h 56.58398 z"
       id="rect5069"
       inkscape:connector-curvature="0"
       transform="matrix(0.26458333,0,0,0.26458333,0,197)" />
  </g>
</svg>
