<?xml version="1.0" encoding="UTF-8" standalone="no"?>
<svg
   xmlns:dc="http://purl.org/dc/elements/1.1/"
   xmlns:cc="http://creativecommons.org/ns#"
   xmlns:rdf="http://www.w3.org/1999/02/22-rdf-syntax-ns#"
   xmlns:svg="http://www.w3.org/2000/svg"
   xmlns="http://www.w3.org/2000/svg"
   xmlns:sodipodi="http://sodipodi.sourceforge.net/DTD/sodipodi-0.dtd"
   xmlns:inkscape="http://www.inkscape.org/namespaces/inkscape"
   xml:space="preserve"
   enable-background="new 0 0 100 100"
   viewBox="0 0 100 100"
   height="100px"
   width="100px"
   y="0px"
   x="0px"
   id="Layer_1"
   version="1.1"
   sodipodi:docname="expand.svg"
   inkscape:version="0.92.1 r15371"><sodipodi:namedview
     pagecolor="#ffffff"
     bordercolor="#666666"
     borderopacity="1"
     objecttolerance="10"
     gridtolerance="10"
     guidetolerance="10"
     inkscape:pageopacity="0"
     inkscape:pageshadow="2"
     inkscape:window-width="1364"
     inkscape:window-height="720"
     id="namedview4554"
     showgrid="false"
     inkscape:zoom="5.38"
     inkscape:cx="50"
     inkscape:cy="50"
     inkscape:window-x="0"
     inkscape:window-y="23"
     inkscape:window-maximized="1"
     inkscape:current-layer="Layer_1" /><metadata
     id="metadata4533"><rdf:RDF><cc:Work
         rdf:about=""><dc:format>image/svg+xml</dc:format><dc:type
           rdf:resource="http://purl.org/dc/dcmitype/StillImage" /><dc:title></dc:title></cc:Work></rdf:RDF></metadata><defs
     id="defs4531" /><path
     id="path4524"
     d="M95.807,56.404c4.979-0.002,5.465,7.828,1.776,9.513c-0.37,0.312-42.815,20.194-42.912,20.259  c-3.077,1.559-6.251,1.559-9.607,0c0.36-0.158-43.022-20.054-43.036-20.062c-3.388-1.563-2.617-9.69,2.964-9.71  C5.021,56.402,95.805,56.383,95.807,56.404z" /><path
     id="path4526"
     d="M4.194,43.656c-4.978,0.002-5.465-7.829-1.777-9.513c0.371-0.311,42.314-20.254,42.41-20.32  c3.077-1.557,6.253-1.557,9.608,0C54.4,13.816,97.958,33.938,97.973,33.948c3.389,1.562,2.617,9.69-2.964,9.708  C94.979,43.659,4.195,43.678,4.194,43.656z" /></svg>