<?xml version="1.0" encoding="UTF-8" standalone="no"?>
<svg
   xmlns:sketch="http://www.bohemiancoding.com/sketch/ns"
   xmlns:dc="http://purl.org/dc/elements/1.1/"
   xmlns:cc="http://creativecommons.org/ns#"
   xmlns:rdf="http://www.w3.org/1999/02/22-rdf-syntax-ns#"
   xmlns:svg="http://www.w3.org/2000/svg"
   xmlns="http://www.w3.org/2000/svg"
   xmlns:sodipodi="http://sodipodi.sourceforge.net/DTD/sodipodi-0.dtd"
   xmlns:inkscape="http://www.inkscape.org/namespaces/inkscape"
   width="100px"
   height="100px"
   viewBox="0 0 100 100"
   version="1.1"
   id="svg2"
   inkscape:version="0.48.5 r10040"
   sodipodi:docname="file-share.svg">
  <metadata
     id="metadata16">
    <rdf:RDF>
      <cc:Work
         rdf:about="">
        <dc:format>image/svg+xml</dc:format>
        <dc:type
           rdf:resource="http://purl.org/dc/dcmitype/StillImage" />
        <dc:title>document</dc:title>
      </cc:Work>
    </rdf:RDF>
  </metadata>
  <sodipodi:namedview
     pagecolor="#ffffff"
     bordercolor="#666666"
     borderopacity="1"
     objecttolerance="10"
     gridtolerance="10"
     guidetolerance="10"
     inkscape:pageopacity="0"
     inkscape:pageshadow="2"
     inkscape:window-width="1593"
     inkscape:window-height="1033"
     id="namedview14"
     showgrid="false"
     inkscape:zoom="4.8726356"
     inkscape:cx="44.297058"
     inkscape:cy="63.592885"
     inkscape:window-x="173"
     inkscape:window-y="54"
     inkscape:window-maximized="0"
     inkscape:current-layer="document" />
  <!-- Generator: Sketch 3.3.3 (12072) - http://www.bohemiancoding.com/sketch -->
  <title
     id="title4">document</title>
  <desc
     id="desc6">Created with Sketch.</desc>
  <defs
     id="defs8" />
  <g
     id="Page-1"
     sketch:type="MSPage"
     transform="matrix(0.93353641,0,0,0.93353641,2.8053753,4.0212496)"
     style="fill:none;fill-rule:evenodd;stroke:none;stroke-width:1">
    <g
       id="document"
       sketch:type="MSArtboardGroup"
       style="fill:#000000"
       transform="matrix(1.070349,0,0,1.070349,-0.85245654,-4.3072757)">
      <path
         d="M 14.125 0.3125 L 14.125 99.8125 L 89.8125 99.8125 L 89.8125 21.03125 L 69.125 0.3125 L 14.125 0.3125 z M 19.78125 5.96875 L 63.5625 5.96875 L 63.5625 26.59375 L 84.15625 26.59375 L 84.15625 94.15625 L 19.78125 94.15625 L 19.78125 5.96875 z M 69.21875 8.5 L 81.1875 20.9375 L 69.21875 20.9375 L 69.21875 8.5 z M 55.59375 34.40625 C 51.414029 34.40625 48.03125 37.78903 48.03125 41.96875 C 48.03125 43.380558 48.421317 44.713258 49.09375 45.84375 L 38.28125 55.65625 C 37.341475 55.237733 36.313898 55 35.21875 55 C 31.03903 55 27.65625 58.38278 27.65625 62.5625 C 27.65625 66.74222 31.03903 70.15625 35.21875 70.15625 C 36.475641 70.15625 37.644353 69.823429 38.6875 69.28125 L 48.59375 77.03125 C 48.23531 77.911559 48.03125 78.865346 48.03125 79.875 C 48.03125 84.05472 51.414029 87.46875 55.59375 87.46875 C 59.773471 87.46875 63.15625 84.05472 63.15625 79.875 C 63.15625 75.69528 59.773471 72.3125 55.59375 72.3125 C 53.56132 72.3125 51.73355 73.134803 50.375 74.4375 L 41.125 67.28125 C 42.161213 65.986374 42.78125 64.349933 42.78125 62.5625 C 42.78125 60.623148 42.043269 58.870437 40.84375 57.53125 L 51.1875 48.125 C 52.426448 49.011346 53.953008 49.5625 55.59375 49.5625 C 59.773471 49.5625 63.15625 46.14847 63.15625 41.96875 C 63.15625 37.78903 59.773471 34.40625 55.59375 34.40625 z "
         transform="matrix(1.0007909,0,0,1.0007909,-2.0111654,-2.5110457e-4)"
         id="path12" />
      <g
         id="g3152"
         transform="matrix(0.90010212,0,0,0.90010212,-86.257923,19.955455)">
        <g
           id="g3158"
           transform="matrix(0.73470489,0,0,0.73470489,37.831708,10.36682)" />
      </g>
    </g>
  </g>
</svg>
