<?xml version="1.0" encoding="UTF-8" standalone="no"?>
<svg
   xmlns:dc="http://purl.org/dc/elements/1.1/"
   xmlns:cc="http://creativecommons.org/ns#"
   xmlns:rdf="http://www.w3.org/1999/02/22-rdf-syntax-ns#"
   xmlns:svg="http://www.w3.org/2000/svg"
   xmlns="http://www.w3.org/2000/svg"
   xmlns:sodipodi="http://sodipodi.sourceforge.net/DTD/sodipodi-0.dtd"
   xmlns:inkscape="http://www.inkscape.org/namespaces/inkscape"
   version="1.1"
   id="Layer_1"
   x="0px"
   y="0px"
   width="102.4"
   height="106.66666"
   viewBox="0 0 96 100"
   enable-background="new 0 0 96 100"
   xml:space="preserve"
   inkscape:version="0.92.1 r15371"
   sodipodi:docname="reboot.svg"><metadata
     id="metadata9"><rdf:RDF><cc:Work
         rdf:about=""><dc:format>image/svg+xml</dc:format><dc:type
           rdf:resource="http://purl.org/dc/dcmitype/StillImage" /><dc:title /></cc:Work></rdf:RDF></metadata><defs
     id="defs7" /><sodipodi:namedview
     pagecolor="#ffffff"
     bordercolor="#666666"
     borderopacity="1"
     objecttolerance="10"
     gridtolerance="10"
     guidetolerance="10"
     inkscape:pageopacity="0"
     inkscape:pageshadow="2"
     inkscape:window-width="1364"
     inkscape:window-height="720"
     id="namedview5"
     showgrid="false"
     inkscape:zoom="3.7819428"
     inkscape:cx="37.425714"
     inkscape:cy="54.67295"
     inkscape:window-x="0"
     inkscape:window-y="23"
     inkscape:window-maximized="1"
     inkscape:current-layer="Layer_1" /><path
     style="fill:#000000;fill-opacity:1;fill-rule:nonzero;stroke:none;stroke-width:1.12273359"
     d="M 41.802814,9.6712211 C 18.912303,9.6709221 0.35580317,28.227422 0.35610237,51.117933 0.35678939,74.007746 18.913002,92.563158 41.802814,92.562859 c 0.327458,-0.01278 0.654751,-0.02944 0.981812,-0.04998 V 80.786481 c -0.327051,0.01731 -0.654366,0.02922 -0.981812,0.0357 -16.405203,-10e-7 -29.704249,-13.299047 -29.70425,-29.70425 0,-16.405205 13.299046,-29.704251 29.70425,-29.704252 15.84661,0.0085 28.896223,12.454832 29.654268,28.283303 H 56.990542 L 76.814201,75.377594 96.671778,49.696984 H 83.178123 C 82.413233,27.390896 64.121999,9.6962706 41.802814,9.6712211 Z"
     id="path4196"
     inkscape:connector-curvature="0"
     sodipodi:nodetypes="ccccccsccccccc" /></svg>