<?xml version="1.0" encoding="UTF-8" standalone="no"?>
<svg
   xmlns:dc="http://purl.org/dc/elements/1.1/"
   xmlns:cc="http://creativecommons.org/ns#"
   xmlns:rdf="http://www.w3.org/1999/02/22-rdf-syntax-ns#"
   xmlns:svg="http://www.w3.org/2000/svg"
   xmlns="http://www.w3.org/2000/svg"
   xmlns:sodipodi="http://sodipodi.sourceforge.net/DTD/sodipodi-0.dtd"
   xmlns:inkscape="http://www.inkscape.org/namespaces/inkscape"
   version="1.1"
   id="Layer_1"
   x="0px"
   y="0px"
   width="100px"
   height="100px"
   viewBox="0 0 100 100"
   enable-background="new 0 0 100 100"
   xml:space="preserve"
   inkscape:version="0.48.5 r10040"
   sodipodi:docname="scan.svg"><metadata
     id="metadata17"><rdf:RDF><cc:Work
         rdf:about=""><dc:format>image/svg+xml</dc:format><dc:type
           rdf:resource="http://purl.org/dc/dcmitype/StillImage" /></cc:Work></rdf:RDF></metadata><defs
     id="defs15" /><sodipodi:namedview
     pagecolor="#ffffff"
     bordercolor="#666666"
     borderopacity="1"
     objecttolerance="10"
     gridtolerance="10"
     guidetolerance="10"
     inkscape:pageopacity="0"
     inkscape:pageshadow="2"
     inkscape:window-width="1505"
     inkscape:window-height="1014"
     id="namedview13"
     showgrid="false"
     inkscape:zoom="5.4052456"
     inkscape:cx="31.650782"
     inkscape:cy="50"
     inkscape:window-x="271"
     inkscape:window-y="63"
     inkscape:window-maximized="0"
     inkscape:current-layer="g3" /><g
     id="g3"><path
       d="M 49.9375 0.21875 C 22.3675 0.21875 -0.0625 22.64875 -0.0625 50.21875 C -0.0625 77.78875 22.3675 100.21875 49.9375 100.21875 C 77.5075 100.21875 99.9375 77.78875 99.9375 50.21875 C 99.9375 22.64875 77.5075 0.21875 49.9375 0.21875 z M 49 7.1875 L 49 24.75 C 43.329 24.954 38.145 27.01175 34 30.34375 L 25.25 21.40625 L 21.3125 25.34375 L 30.0625 34.28125 C 26.7305 38.42625 24.67375 43.61025 24.46875 49.28125 L 6.90625 49.28125 C 7.39525 26.28125 26 7.6765 49 7.1875 z M 50.875 7.1875 C 73.875 7.6765 92.47975 26.28125 92.96875 49.28125 L 75.40625 49.28125 C 74.92725 35.95625 64.2 25.229 50.875 24.75 L 50.875 7.1875 z M 60.40625 13.21875 C 58.073578 13.21875 56.15625 15.104828 56.15625 17.4375 C 56.15625 19.770172 58.073578 21.65625 60.40625 21.65625 C 62.738922 21.65625 64.625 19.770172 64.625 17.4375 C 64.625 15.104828 62.738922 13.21875 60.40625 13.21875 z M 49 26.59375 L 49 40.71875 C 47.731032 40.843449 46.542245 41.239675 45.46875 41.8125 L 35.3125 31.65625 C 39.1145 28.65425 43.841 26.79375 49 26.59375 z M 50.875 26.59375 C 63.177 27.07075 73.0855 36.97925 73.5625 49.28125 L 59.4375 49.28125 C 58.994089 44.768994 55.387256 41.162161 50.875 40.71875 L 50.875 26.59375 z M 31.375 35.59375 L 41.53125 45.75 C 40.95844 46.823468 40.593459 48.012318 40.46875 49.28125 L 26.3125 49.28125 C 26.5125 44.12225 28.373 39.39475 31.375 35.59375 z M 82.46875 37.65625 C 81.088964 37.65625 79.96875 38.776464 79.96875 40.15625 C 79.96875 41.536036 81.088964 42.65625 82.46875 42.65625 C 83.848536 42.65625 84.96875 41.536036 84.96875 40.15625 C 84.96875 38.776464 83.848536 37.65625 82.46875 37.65625 z M 17.4375 38.21875 C 16.164314 38.21875 15.125 39.258064 15.125 40.53125 C 15.125 41.804436 16.164314 42.84375 17.4375 42.84375 C 18.710686 42.84375 19.75 41.804436 19.75 40.53125 C 19.75 39.258064 18.710686 38.21875 17.4375 38.21875 z M 6.90625 51.15625 L 24.46875 51.15625 C 24.94975 64.48125 35.675 75.2085 49 75.6875 L 49 93.25 C 26.001 92.761 7.39525 74.15525 6.90625 51.15625 z M 26.3125 51.15625 L 40.46875 51.15625 C 40.9122 55.668429 44.487821 59.24405 49 59.6875 L 49 73.84375 C 36.697 73.36575 26.7885 63.45825 26.3125 51.15625 z M 59.4375 51.15625 L 73.5625 51.15625 C 73.0845 63.45825 63.177 73.36575 50.875 73.84375 L 50.875 59.6875 C 55.387211 59.244047 58.994092 55.668474 59.4375 51.15625 z M 75.40625 51.15625 L 92.96875 51.15625 C 92.47975 74.15525 73.875 92.761 50.875 93.25 L 50.875 75.6875 C 64.2 75.2075 74.92725 64.48125 75.40625 51.15625 z M 58.03125 61.59375 C 56.580398 61.59375 55.40625 62.767898 55.40625 64.21875 C 55.40625 65.669602 56.580398 66.84375 58.03125 66.84375 C 59.482102 66.84375 60.65625 65.669602 60.65625 64.21875 C 60.65625 62.767898 59.482102 61.59375 58.03125 61.59375 z M 31.71875 75.46875 C 29.734884 75.46875 28.125 77.078634 28.125 79.0625 C 28.125 81.046366 29.734884 82.65625 31.71875 82.65625 C 33.702616 82.65625 35.3125 81.046366 35.3125 79.0625 C 35.3125 77.078634 33.702616 75.46875 31.71875 75.46875 z "
       id="path5" /></g></svg>