<?xml version="1.0" encoding="UTF-8" standalone="no"?>
<svg
   xmlns:dc="http://purl.org/dc/elements/1.1/"
   xmlns:cc="http://creativecommons.org/ns#"
   xmlns:rdf="http://www.w3.org/1999/02/22-rdf-syntax-ns#"
   xmlns:svg="http://www.w3.org/2000/svg"
   xmlns="http://www.w3.org/2000/svg"
   xmlns:sodipodi="http://sodipodi.sourceforge.net/DTD/sodipodi-0.dtd"
   xmlns:inkscape="http://www.inkscape.org/namespaces/inkscape"
   version="1.1"
   id="Layer_1"
   x="0px"
   y="0px"
   width="91.5px"
   height="97.6px"
   viewBox="0 0 91.5 97.6"
   enable-background="new 0 0 91.5 97.6"
   xml:space="preserve"
   inkscape:version="0.48.5 r10040"
   sodipodi:docname="settings.svg"><metadata
     id="metadata17"><rdf:RDF><cc:Work
         rdf:about=""><dc:format>image/svg+xml</dc:format><dc:type
           rdf:resource="http://purl.org/dc/dcmitype/StillImage" /><dc:title /></cc:Work></rdf:RDF></metadata><defs
     id="defs15" /><sodipodi:namedview
     pagecolor="#ffffff"
     bordercolor="#666666"
     borderopacity="1"
     objecttolerance="10"
     gridtolerance="10"
     guidetolerance="10"
     inkscape:pageopacity="0"
     inkscape:pageshadow="2"
     inkscape:window-width="1293"
     inkscape:window-height="985"
     id="namedview13"
     showgrid="false"
     inkscape:zoom="6.278128"
     inkscape:cx="47.082664"
     inkscape:cy="48.799999"
     inkscape:window-x="311"
     inkscape:window-y="80"
     inkscape:window-maximized="0"
     inkscape:current-layer="g3" /><g
     id="g3"><path
       d="m 51.03612,3.7700359 c -1.523076,3.7384622 -2.753847,7.3375001 -4,10.9375001 l -1.9375,0 -0.5625,0 c -1.661539,0.138462 -3.164424,0.285577 -4.6875,0.5625 -1.246154,0.138461 -2.503846,0.553365 -3.75,0.96875 -2.215385,-3.184617 -4.565866,-6.3600981 -6.78125,-9.4062501 l -0.15625,-0.15625 c -0.830769,0.276923 -1.651442,0.553365 -2.34375,0.96875 -1.384615,0.553846 -2.628847,1.262981 -3.875,2.09375 -1.938462,0.9692311 -3.744711,2.1956721 -5.40625,3.7187501 l 0,0.15625 c 1.661539,3.461538 3.182213,6.913461 4.84375,10.375 -0.969229,0.969229 -1.794232,1.798558 -2.625,2.90625 -1.107693,1.107693 -2.07548,2.490385 -2.90625,3.875 -0.415384,0.553847 -0.691827,1.120192 -0.96875,1.8125 -3.876922,-0.692308 -7.7480779,-1.383654 -11.6249999,-1.9375 -0.6923077,1.661538 -1.383654,3.325 -1.9375,5.125 -0.5538462,2.769231 -1.129327,5.400481 -1.40624999,8.03125 l 10.81249989,4.125 0,1.96875 c 0,1.523077 0.147116,3.18221 0.5625,4.84375 0.138462,1.384614 0.553365,2.771635 0.96875,4.15625 -3.184616,2.215385 -6.2216349,4.427404 -9.4062499,6.78125 1.6615384,4.153846 4.012019,8.025001 6.7812499,11.625 l 0.125,0 c 3.461539,-1.661538 6.93125,-3.182212 10.53125,-4.84375 0.830769,0.830768 1.669231,1.51298 2.5,2.34375 1.246154,1.107692 2.744711,2.093268 4.40625,3.0625 0.415384,0.276922 0.977404,0.553365 1.53125,0.96875 -0.692308,3.738461 -1.258654,7.591828 -1.8125,11.46875 1.523077,0.692308 3.057211,1.240866 4.71875,1.65625 0.415385,0.138461 1.240384,0.441826 2.625,0.71875 1.938462,0.553846 3.8875,0.816826 5.6875,1.09375 1.523077,-3.738462 2.910097,-7.324037 4.15625,-11.0625 l 1.65625,0 0.125,0 c 1.661539,0 3.195672,-0.160577 4.71875,-0.4375 1.384615,-0.276924 2.771635,-0.678366 4.15625,-1.09375 0,0 -0.01346,0.125 0.125,0.125 2.215385,3.184616 4.597116,6.377885 6.8125,9.5625 0.692308,-0.415384 1.383654,-0.691827 1.9375,-0.96875 1.384616,-0.553846 2.628846,-1.245192 3.875,-1.9375 2.076924,-1.246154 4.012499,-2.633172 5.8125,-4.15625 -1.523077,-3.600001 -3.182212,-7.056251 -4.84375,-10.65625 0.830768,-0.83077 1.512981,-1.669232 2.34375,-2.5 0.969231,-1.246154 1.950481,-2.628847 2.78125,-3.875 0,-0.138461 0.125,-0.267789 0.125,-0.40625 0.276923,-0.415384 0.566827,-0.990866 0.84375,-1.40625 3.876923,0.692308 7.748077,1.276443 11.625,1.96875 0.692308,-1.661538 1.227404,-3.325 1.78125,-5.125 0.138462,-0.415385 0.299038,-0.852404 0.4375,-1.40625 0.138462,-0.415385 0.129327,-0.821155 0.40625,-1.375 0.276923,-1.8 0.705288,-3.588462 0.84375,-5.25 -3.6,-1.523077 -7.3375,-2.771635 -10.9375,-4.15625 l 0,-1.6875 c 0,-1.661539 -0.147115,-3.432212 -0.5625,-5.09375 -0.138462,-1.246154 -0.566827,-2.503846 -0.84375,-3.75 3.184615,-2.215385 6.391345,-4.583653 9.4375,-6.9375 l 0.125,0 c -1.661538,-4.153845 -3.891348,-8.025001 -6.9375,-11.625 -3.600001,1.523076 -7.038462,3.182212 -10.5,4.84375 -0.96923,-0.96923 -1.93702,-1.919232 -2.90625,-2.75 -1.246154,-0.969231 -2.490385,-1.963943 -3.875,-2.65625 -0.415385,-0.415385 -0.990866,-0.691826 -1.40625,-0.96875 0.553846,-3.876923 1.258654,-7.748078 1.8125,-11.6250001 -1.661538,-0.692307 -3.45,-1.3836544 -5.25,-1.9375 -0.415384,-0.1384622 -0.990864,-0.28125 -1.40625,-0.28125 -0.553846,-0.2769233 -0.959615,-0.40625 -1.375,-0.40625 -1.661538,-0.4153845 -3.338461,-0.6918267 -5,-0.96875 z m -5.25,23.0937501 c 12.095828,0 21.90625,9.810422 21.90625,21.90625 0,12.095828 -9.810422,21.90625 -21.90625,21.90625 -12.095828,0 -21.90625,-9.810422 -21.90625,-21.90625 0,-12.095828 9.810422,-21.90625 21.90625,-21.90625 z"
       id="path9"
       inkscape:connector-curvature="0" /></g></svg>