<?xml version="1.0" encoding="UTF-8" standalone="no"?>
<!-- Created with Inkscape (http://www.inkscape.org/) -->

<svg
   xmlns:dc="http://purl.org/dc/elements/1.1/"
   xmlns:cc="http://creativecommons.org/ns#"
   xmlns:rdf="http://www.w3.org/1999/02/22-rdf-syntax-ns#"
   xmlns:svg="http://www.w3.org/2000/svg"
   xmlns="http://www.w3.org/2000/svg"
   xmlns:sodipodi="http://sodipodi.sourceforge.net/DTD/sodipodi-0.dtd"
   xmlns:inkscape="http://www.inkscape.org/namespaces/inkscape"
   width="100mm"
   height="100mm"
   viewBox="0 0 100 100"
   version="1.1"
   id="svg4524"
   inkscape:version="0.92.1 r15371"
   sodipodi:docname="terminal.svg">
  <defs
     id="defs4518" />
  <sodipodi:namedview
     id="base"
     pagecolor="#ffffff"
     bordercolor="#666666"
     borderopacity="1.0"
     inkscape:pageopacity="0.0"
     inkscape:pageshadow="2"
     inkscape:zoom="0.7"
     inkscape:cx="193.84994"
     inkscape:cy="190.60194"
     inkscape:document-units="mm"
     inkscape:current-layer="layer1"
     showgrid="false"
     inkscape:window-width="1364"
     inkscape:window-height="720"
     inkscape:window-x="0"
     inkscape:window-y="23"
     inkscape:window-maximized="1" />
  <metadata
     id="metadata4521">
    <rdf:RDF>
      <cc:Work
         rdf:about="">
        <dc:format>image/svg+xml</dc:format>
        <dc:type
           rdf:resource="http://purl.org/dc/dcmitype/StillImage" />
        <dc:title />
      </cc:Work>
    </rdf:RDF>
  </metadata>
  <g
     inkscape:label="Layer 1"
     inkscape:groupmode="layer"
     id="layer1"
     transform="translate(0,-197)">
    <path
       style="fill:#000000;fill-opacity:1;stroke:none;stroke-width:0;stroke-miterlimit:1.41420996;stroke-dasharray:none;stroke-opacity:1"
       d="M 40.511719,0 C 18.62832,0 1.0097656,17.616573 1.0097656,39.5 v 298.95117 c 0,21.88339 17.6185544,39.50196 39.5019534,39.50195 H 339.46289 c 21.8834,10e-6 39.5,-17.61856 39.5,-39.50195 V 39.5 c 0,-21.883427 -17.6166,-39.5 -39.5,-39.5 z m 29.642578,49.042969 c 2.310701,0 4.364899,0.560167 6.162109,1.683593 l 87.292974,52.519528 c 4.1079,2.52775 6.67578,7.0231 6.67578,12.35938 0,5.3362 -2.56788,9.82971 -6.67578,12.35742 l -87.292974,52.51953 c -1.79721,1.12343 -3.851408,1.68555 -6.162109,1.68555 -7.188843,0 -12.835938,-6.17902 -12.835938,-14.04297 0,-5.33624 2.56592,-9.82971 6.673829,-12.35742 L 130.74609,115.60547 63.992188,75.443359 c -4.107909,-2.527748 -6.673829,-7.023097 -6.673829,-12.359375 0,-7.863911 5.647095,-14.041015 12.835938,-14.041015 z M 202.19531,157.0957 h 114.75196 c 6.28157,0 11.33789,5.05632 11.33789,11.33789 v 4.4668 c 0,6.28158 -5.05632,11.33789 -11.33789,11.33789 H 202.19531 c -6.28157,0 -11.33789,-5.05631 -11.33789,-11.33789 v -4.4668 c 0,-6.28157 5.05632,-11.33789 11.33789,-11.33789 z"
       id="rect5069"
       inkscape:connector-curvature="0"
       transform="matrix(0.26458333,0,0,0.26458333,0,197)" />
    <g
       aria-label="&gt;"
       transform="scale(0.87402916,1.1441266)"
       style="font-style:normal;font-variant:normal;font-weight:normal;font-stretch:normal;font-size:67.93028259px;line-height:125%;font-family:Utopia;-inkscape-font-specification:Utopia;letter-spacing:0px;word-spacing:0px;fill:#000000;fill-opacity:1;stroke:none;stroke-width:1.69825721px;stroke-linecap:butt;stroke-linejoin:miter;stroke-opacity:1"
       id="text4494-4" />
  </g>
</svg>
