<?xml version="1.0" encoding="UTF-8" standalone="no"?>
<svg
   xmlns:dc="http://purl.org/dc/elements/1.1/"
   xmlns:cc="http://creativecommons.org/ns#"
   xmlns:rdf="http://www.w3.org/1999/02/22-rdf-syntax-ns#"
   xmlns:svg="http://www.w3.org/2000/svg"
   xmlns="http://www.w3.org/2000/svg"
   xmlns:sodipodi="http://sodipodi.sourceforge.net/DTD/sodipodi-0.dtd"
   xmlns:inkscape="http://www.inkscape.org/namespaces/inkscape"
   version="1.1"
   id="Layer_1"
   x="0px"
   y="0px"
   width="100"
   height="100"
   viewBox="0 0 100 99.999995"
   enable-background="new 0 0 100 71.938"
   xml:space="preserve"
   inkscape:version="0.48.5 r10040"
   sodipodi:docname="watch.svg"><metadata
     id="metadata15"><rdf:RDF><cc:Work
         rdf:about=""><dc:format>image/svg+xml</dc:format><dc:type
           rdf:resource="http://purl.org/dc/dcmitype/StillImage" /><dc:title></dc:title></cc:Work></rdf:RDF></metadata><defs
     id="defs13" /><sodipodi:namedview
     pagecolor="#ffffff"
     bordercolor="#666666"
     borderopacity="1"
     objecttolerance="10"
     gridtolerance="10"
     guidetolerance="10"
     inkscape:pageopacity="0"
     inkscape:pageshadow="2"
     inkscape:window-width="1616"
     inkscape:window-height="976"
     id="namedview11"
     showgrid="false"
     inkscape:zoom="3.4033933"
     inkscape:cx="24.997795"
     inkscape:cy="35.969002"
     inkscape:window-x="199"
     inkscape:window-y="108"
     inkscape:window-maximized="0"
     inkscape:current-layer="Layer_1"
     showguides="true"
     inkscape:guide-bbox="true" /><g
     id="g3"
     transform="translate(0,28.061996)"><path
       style="fill:#000000"
       d="m 44.016717,-0.7161655 0,2.9513893 -19.340278,0 -5.659722,4.652777 c 12.088888,0.414445 21.805555,10.3469452 21.805555,22.5347232 0,2.314444 -0.354722,4.561111 -1.006944,6.666666 l 19.826389,0 C 58.990605,33.982724 58.634772,31.737168 58.634772,29.422724 58.631472,17.233835 68.349217,7.3024458 80.440328,6.8880008 l -5.625,-4.652777 -19.375,0 0,-2.9513893 -11.423611,0 z M 18.218105,10.915779 c -10.2200002,0 -18.5069442,8.285833 -18.5069442,18.506945 0,10.221111 8.286944,18.506944 18.5069442,18.506944 10.221112,0 18.506945,-8.285833 18.506945,-18.506944 0,-10.221112 -8.285833,-18.506945 -18.506945,-18.506945 z m 62.986112,0 c -10.223334,0 -18.506945,8.285833 -18.506945,18.506945 0,10.221111 8.283611,18.506944 18.506945,18.506944 10.218888,0 18.506943,-8.285833 18.506943,-18.506944 0,-10.221112 -8.288055,-18.506945 -18.506943,-18.506945 z m -62.986112,6.388889 c 6.701112,0 12.118056,5.414722 12.118056,12.118056 0.0011,6.703333 -5.415833,12.152777 -12.118056,12.152777 -6.701111,0 -12.1527772,-5.449444 -12.1527772,-12.152777 0,-6.704445 5.4516662,-12.118056 12.1527772,-12.118056 z m 62.986112,0 c 6.7,0 12.152777,5.414722 12.152777,12.118056 0,6.703333 -5.452777,12.152777 -12.152777,12.152777 -6.701112,0 -12.118056,-5.449444 -12.118056,-12.152777 0,-6.704445 5.416944,-12.118056 12.118056,-12.118056 z"
       id="path5"
       inkscape:connector-curvature="0" /></g></svg>