<?xml version="1.0" encoding="UTF-8" standalone="no"?>
<svg
   xmlns:dc="http://purl.org/dc/elements/1.1/"
   xmlns:cc="http://creativecommons.org/ns#"
   xmlns:rdf="http://www.w3.org/1999/02/22-rdf-syntax-ns#"
   xmlns:svg="http://www.w3.org/2000/svg"
   xmlns="http://www.w3.org/2000/svg"
   xmlns:sodipodi="http://sodipodi.sourceforge.net/DTD/sodipodi-0.dtd"
   xmlns:inkscape="http://www.inkscape.org/namespaces/inkscape"
   version="1.1"
   id="Layer_1"
   x="0px"
   y="0px"
   width="106.66666"
   height="106.66666"
   viewBox="0 0 100 99.999995"
   enable-background="new 0 0 100 71.938"
   xml:space="preserve"
   inkscape:version="0.92.1 r15371"
   sodipodi:docname="watch.svg"><metadata
     id="metadata15"><rdf:RDF><cc:Work
         rdf:about=""><dc:format>image/svg+xml</dc:format><dc:type
           rdf:resource="http://purl.org/dc/dcmitype/StillImage" /><dc:title /></cc:Work></rdf:RDF></metadata><defs
     id="defs13" /><sodipodi:namedview
     pagecolor="#ffffff"
     bordercolor="#666666"
     borderopacity="1"
     objecttolerance="10"
     gridtolerance="10"
     guidetolerance="10"
     inkscape:pageopacity="0"
     inkscape:pageshadow="2"
     inkscape:window-width="1364"
     inkscape:window-height="720"
     id="namedview11"
     showgrid="false"
     inkscape:zoom="1.7016967"
     inkscape:cx="46.085542"
     inkscape:cy="42.201959"
     inkscape:window-x="0"
     inkscape:window-y="23"
     inkscape:window-maximized="1"
     inkscape:current-layer="g3"
     showguides="true"
     inkscape:guide-bbox="true" /><g
     id="g3"
     transform="translate(0,28.061996)"><path
       style="fill:#000000;stroke-width:1.0666666"
       d="m 46.951172,29.167969 v 3.148437 H 26.322266 l -6.03711,4.962891 c 12.894813,0.442075 23.257813,11.036814 23.257813,24.037109 0,2.46874 -0.378516,4.865403 -1.074219,7.111328 h 21.148438 c -0.694521,-2.24711 -1.074219,-4.642588 -1.074219,-7.111328 -0.0035,-13.00148 10.362581,-23.595034 23.259765,-24.037109 l -6,-4.962891 H 59.136719 V 29.167969 Z M 18.373047,43.013672 c -9.9081042,0 -17.9433595,8.032224 -17.9433595,17.941406 0,9.909182 8.0352553,17.943359 17.9433595,17.94336 9.909183,0 17.941406,-8.034178 17.941406,-17.94336 0,-9.909182 -8.032223,-17.941406 -17.941406,-17.941406 z m 70.667969,0 c -9.908104,0 -17.94336,8.032224 -17.94336,17.941406 0,9.909182 8.035256,17.94336 17.94336,17.94336 9.909183,0 17.941404,-8.034178 17.941404,-17.94336 0,-9.909182 -8.032221,-17.941406 -17.941404,-17.941406 z"
       transform="matrix(0.93750007,0,0,0.93750007,0,-28.061996)"
       id="path5"
       inkscape:connector-curvature="0" /></g></svg>