<?xml version="1.0" encoding="UTF-8" standalone="no"?>
<!-- Generator: Adobe Illustrator 14.0.0, SVG Export Plug-In . SVG Version: 6.00 Build 43363)  -->

<svg
   xmlns:dc="http://purl.org/dc/elements/1.1/"
   xmlns:cc="http://creativecommons.org/ns#"
   xmlns:rdf="http://www.w3.org/1999/02/22-rdf-syntax-ns#"
   xmlns:svg="http://www.w3.org/2000/svg"
   xmlns="http://www.w3.org/2000/svg"
   xmlns:sodipodi="http://sodipodi.sourceforge.net/DTD/sodipodi-0.dtd"
   xmlns:inkscape="http://www.inkscape.org/namespaces/inkscape"
   version="1.0"
   id="Layer_1"
   x="0px"
   y="0px"
   width="98.918px"
   height="100px"
   viewBox="0 0 98.918 100"
   enable-background="new 0 0 98.918 100"
   xml:space="preserve"
   inkscape:version="0.48.5 r10040"
   sodipodi:docname="wifi-off.svg"><metadata
     id="metadata13"><rdf:RDF><cc:Work
         rdf:about=""><dc:format>image/svg+xml</dc:format><dc:type
           rdf:resource="http://purl.org/dc/dcmitype/StillImage" /><dc:title></dc:title></cc:Work></rdf:RDF></metadata><defs
     id="defs11" /><sodipodi:namedview
     pagecolor="#ffffff"
     bordercolor="#666666"
     borderopacity="1"
     objecttolerance="10"
     gridtolerance="10"
     guidetolerance="10"
     inkscape:pageopacity="0"
     inkscape:pageshadow="2"
     inkscape:window-width="1548"
     inkscape:window-height="1003"
     id="namedview9"
     showgrid="false"
     inkscape:zoom="4.5238921"
     inkscape:cx="59.090698"
     inkscape:cy="39.804678"
     inkscape:window-x="369"
     inkscape:window-y="74"
     inkscape:window-maximized="0"
     inkscape:current-layer="Layer_1" /><path
     d="M 83.3125 13.1875 L 13.875 76.75 L 21.6875 85.375 L 91.125 21.78125 L 83.3125 13.1875 z M 48.0625 18.90625 C 30.537878 19.228865 13.177916 26.040833 -0.125 39.34375 L 9.9375 49.40625 C 21.865798 37.477952 37.864245 32.102068 53.5625 33.21875 L 67.3125 21.21875 C 61.003353 19.577336 54.522974 18.787317 48.0625 18.90625 z M 89.5 31.3125 L 78.46875 40.9375 C 82.557539 43.349855 86.421749 46.327999 89.9375 49.84375 L 99.875 39.875 C 96.632638 36.632637 93.151755 33.804036 89.5 31.3125 z M 38.9375 46 C 30.826248 47.904897 23.150178 52.006073 16.84375 58.3125 L 20.5625 62.03125 L 38.9375 46 z M 69.21875 49.03125 L 57.375 59.375 C 63.24761 60.751169 68.843896 63.718896 73.4375 68.3125 L 83.09375 58.65625 C 78.948544 54.511044 74.24721 51.324014 69.21875 49.03125 z M 49.28125 70.09375 C 47.555541 70.147124 45.807896 70.444766 44.09375 70.96875 L 35.15625 78.75 L 42.03125 85.625 C 47.490646 81.071246 53.898734 81.233731 58.125 85.71875 L 66.28125 77.5625 C 61.259454 72.540704 55.30588 69.907415 49.28125 70.09375 z "
     id="path5" /></svg>