<?xml version="1.0" encoding="UTF-8" standalone="no"?>
<!-- Generator: Adobe Illustrator 14.0.0, SVG Export Plug-In . SVG Version: 6.00 Build 43363)  -->

<svg
   xmlns:dc="http://purl.org/dc/elements/1.1/"
   xmlns:cc="http://creativecommons.org/ns#"
   xmlns:rdf="http://www.w3.org/1999/02/22-rdf-syntax-ns#"
   xmlns:svg="http://www.w3.org/2000/svg"
   xmlns="http://www.w3.org/2000/svg"
   xmlns:sodipodi="http://sodipodi.sourceforge.net/DTD/sodipodi-0.dtd"
   xmlns:inkscape="http://www.inkscape.org/namespaces/inkscape"
   version="1.0"
   id="Layer_1"
   x="0px"
   y="0px"
   width="98.918px"
   height="100px"
   viewBox="0 0 98.918 100"
   enable-background="new 0 0 98.918 100"
   xml:space="preserve"
   inkscape:version="0.48.5 r10040"
   sodipodi:docname="wifi.svg"><metadata
     id="metadata13"><rdf:RDF><cc:Work
         rdf:about=""><dc:format>image/svg+xml</dc:format><dc:type
           rdf:resource="http://purl.org/dc/dcmitype/StillImage" /><dc:title></dc:title></cc:Work></rdf:RDF></metadata><defs
     id="defs11" /><sodipodi:namedview
     pagecolor="#ffffff"
     bordercolor="#666666"
     borderopacity="1"
     objecttolerance="10"
     gridtolerance="10"
     guidetolerance="10"
     inkscape:pageopacity="0"
     inkscape:pageshadow="2"
     inkscape:window-width="1548"
     inkscape:window-height="1003"
     id="namedview9"
     showgrid="false"
     inkscape:zoom="1.9428516"
     inkscape:cx="79.710659"
     inkscape:cy="39.705853"
     inkscape:window-x="197"
     inkscape:window-y="54"
     inkscape:window-maximized="0"
     inkscape:current-layer="Layer_1" /><path
     d="M 48.072523,18.915749 C 30.547901,19.238364 13.186146,26.052735 -0.11677026,39.355652 L 9.925443,49.397865 C 31.897314,27.425994 67.718222,27.630542 89.92989,49.84221 l 9.953341,-9.953344 C 85.567315,25.572946 66.727767,18.572318 48.072523,18.915749 z m 1.821818,25.839147 C 37.899132,44.689731 25.937767,49.204694 16.835019,58.307441 l 9.753388,9.753388 C 39.457029,55.192208 60.434779,55.317551 73.444664,68.327437 l 9.66452,-9.66452 C 73.907149,49.460883 61.88955,44.820062 49.894341,44.754896 z m -0.622084,25.350368 c -5.315849,0.164413 -10.677996,2.524252 -15.463231,7.309487 l 8.220395,8.198178 c 5.459396,-4.553754 11.859049,-4.373932 16.085315,0.111087 l 8.175962,-8.153744 C 61.268902,72.548476 55.296887,69.918929 49.272257,70.105264 z"
     id="path5"
     inkscape:connector-curvature="0"
     sodipodi:nodetypes="sccccssccccssccccs" /></svg>